<svg viewBox="0 0 36 36" xml:space="preserve" xmlns="http://www.w3.org/2000/svg" enable-background="new 0 0 36 36"><g id="icons"><g id="backspace_2_"><path d="m26.2 23.1-.7.7c-.3.3-.8.3-1.1 0l-4-4-4 4c-.3.3-.8.3-1.1 0l-.7-.7c-.3-.3-.3-.8 0-1.1l4-4-4-4c-.3-.3-.3-.8 0-1.1l.7-.7c.3-.3.8-.3 1.1 0l4 4 4-4c.3-.3.8-.3 1.1 0l.7.7c.3.3.3.8 0 1.1l-4 4 4 4c.3.3.3.8 0 1.1z" fill="#5d5d5d" class="fill-000000"></path><path d="M30.5 6.7H11.6c-.9 0-1.5.4-2 1.1l-6.5 9.8c-.2.3-.2.6 0 .8l6.5 9.8c.5.6 1.1 1.1 2 1.1h18.8c1.4 0 2.5-1.1 2.5-2.5V9.2c.1-1.4-1-2.5-2.4-2.5z" fill="none" stroke="#5d5d5d" stroke-width="2.0101" stroke-linejoin="round" stroke-miterlimit="10" class="stroke-222a30"></path></g></g></svg>